<svg width="920.5625px" height="122px" xmlns="http://www.w3.org/2000/svg" viewBox="-210.28125 14 920.5625 122" style="background: rgba(0, 0, 0, 0);" preserveAspectRatio="xMidYMid"><defs><linearGradient id="editing-gradient-gradient" x1="0.3454915028125263" x2="0.6545084971874737" y1="0.024471741852423234" y2="0.9755282581475768" gradientUnits="objectBoundingBox"><stop offset="0" stop-color="#f0f"></stop><stop offset="1" stop-color="#0ff"></stop></linearGradient></defs><g><g transform="translate(-81.16502809524536, 97.39999961853027)"><path d="M27.01-20.61L39.94-21.76L39.94-21.76Q35.33-11.65 35.33 0.06L35.33 0.06L35.33 0.06Q33.60 1.28 31.07 1.28L31.07 1.28L31.07 1.28Q28.54 1.28 26.94 0.10L26.94 0.10L26.94 0.10Q25.34-1.09 25.02-2.30L25.02-2.30L25.02-2.30Q23.42-0.64 20.83 0.32L20.83 0.32L20.83 0.32Q18.24 1.28 15.49 1.28L15.49 1.28L15.49 1.28Q12.74 1.28 10.34 0.38L10.34 0.38L10.34 0.38Q7.94-0.51 6.08-2.50L6.08-2.50L6.08-2.50Q1.98-6.85 1.98-15.10L1.98-15.10L1.98-15.10Q1.98-27.90 8.83-35.58L8.83-35.58L8.83-35.58Q15.87-43.52 28.35-43.52L28.35-43.52L28.35-43.52Q36.99-43.52 40.06-39.04L40.06-39.04L40.06-39.04Q41.02-37.63 41.02-35.94L41.02-35.94L41.02-35.94Q41.02-34.24 40.29-32.80L40.29-32.80L40.29-32.80Q39.55-31.36 38.40-30.21L38.40-30.21L38.40-30.21Q35.65-27.65 32.26-27.65L32.26-27.65L32.26-27.65Q30.91-27.65 29.63-28.10L29.63-28.10L29.63-28.10Q29.89-30.02 29.89-32.26L29.89-32.26L29.89-32.26Q29.89-34.50 29.73-35.52L29.73-35.52L29.73-35.52Q29.57-36.54 29.18-37.38L29.18-37.38L29.18-37.38Q28.35-39.10 26.53-39.10L26.53-39.10L26.53-39.10Q24.70-39.10 22.69-37.15L22.69-37.15L22.69-37.15Q20.67-35.20 19.07-32L19.07-32L19.07-32Q15.55-24.83 15.55-16.19L15.55-16.19L15.55-16.19Q15.55-12.22 17.09-9.41L17.09-9.41L17.09-9.41Q18.75-6.34 21.70-6.34L21.70-6.34L21.70-6.34Q22.72-6.34 23.65-6.85L23.65-6.85L23.65-6.85Q24.58-7.36 24.96-7.74L24.96-7.74L27.01-20.61ZM49.15 0L52.86-18.82L52.86-18.82Q51.01-36.16 44.48-39.87L44.48-39.87L44.48-39.87Q45.82-41.54 48-42.46L48-42.46L48-42.46Q50.18-43.39 52.80-43.39L52.80-43.39L52.80-43.39Q55.42-43.39 57.41-42.46L57.41-42.46L57.41-42.46Q59.39-41.54 60.67-39.55L60.67-39.55L60.67-39.55Q63.10-35.78 63.10-26.75L63.10-26.75L63.10-22.14L63.10-22.14Q66.94-33.41 70.78-38.27L70.78-38.27L70.78-38.27Q74.69-43.26 79.55-43.26L79.55-43.26L79.55-43.26Q81.47-43.26 82.75-42.27L82.75-42.27L82.75-42.27Q84.03-41.28 84.67-39.81L84.67-39.81L84.67-39.81Q79.74-37.63 75.01-31.36L75.01-31.36L75.01-31.36Q70.27-25.09 67.20-16.32L67.20-16.32L63.42 0L49.15 0ZM106.69 1.28L106.69 1.28L106.69 1.28Q98.50 1.28 97.73-10.37L97.73-10.37L86.72-10.37L86.72-10.37Q85.44-7.42 84.54-4.86L84.54-4.86L82.88 0L73.92 0L94.08-42.24L107.84-42.24L110.53-11.14L110.53-11.14Q111.17-4.42 113.73-2.43L113.73-2.43L113.73-2.43Q111.87 1.28 106.69 1.28ZM92.22-23.17L88.70-15.04L97.54-15.04L96.77-31.49L96.77-33.22L92.22-23.17ZM124.03 0L116.99 0L124.67-42.24L138.43-42.24L148.42-13.18L153.73-42.24L160.83-42.18L153.02 0L138.37 0L129.15-27.97L124.03 0ZM189.76-9.86L189.76-9.86L189.76-9.86Q190.98-8.32 190.98-5.82L190.98-5.82L190.98-5.82Q190.98-2.37 188.42-0.54L188.42-0.54L188.42-0.54Q185.86 1.28 181.82 1.28L181.82 1.28L181.82 1.28Q179.52 1.28 176 0.77L176 0.77L176 0.77Q169.09-0.32 166.98-0.32L166.98-0.32L166.98-0.32Q164.86-0.32 164.03-0.22L164.03-0.22L164.03-0.22Q163.20-0.13 161.86 0L161.86 0L169.73-42.24L197.31-42.24L197.31-42.24Q197.31-38.34 195.42-36.29L195.42-36.29L195.42-36.29Q193.54-34.24 189.82-34.24L189.82-34.24L189.82-34.24Q186.11-34.24 182.34-35.97L182.34-35.97L180.35-24.77L191.74-24.77L191.74-24.77Q191.74-21.38 190.08-19.49L190.08-19.49L190.08-19.49Q188.42-17.60 185.63-17.60L185.63-17.60L185.63-17.60Q182.85-17.60 181.12-18.24L181.12-18.24L181.12-18.24Q179.39-18.88 179.20-19.07L179.20-19.07L176.90-6.98L176.90-6.98Q178.43-6.78 181.31-6.78L181.31-6.78L181.31-6.78Q186.24-6.78 189.76-9.86ZM221.82-29.57L221.82-29.57L221.82-29.57Q222.78-31.49 222.78-33.28L222.78-33.28L222.78-33.28Q222.78-35.07 222.59-36.06L222.59-36.06L222.59-36.06Q222.40-37.06 221.95-37.82L221.95-37.82L221.95-37.82Q220.99-39.49 219.07-39.49L219.07-39.49L219.07-39.49Q216.70-39.49 214.78-37.76L214.78-37.76L214.78-37.76Q212.74-35.97 212.74-33.15L212.74-33.15L212.74-33.15Q212.74-31.36 213.98-29.98L213.98-29.98L213.98-29.98Q215.23-28.61 217.15-27.33L217.15-27.33L217.15-27.33Q219.07-26.05 221.25-24.77L221.25-24.77L221.25-24.77Q223.42-23.49 225.34-21.95L225.34-21.95L225.34-21.95Q229.76-18.43 229.76-13.70L229.76-13.70L229.76-13.70Q229.76-10.50 228.06-7.78L228.06-7.78L228.06-7.78Q226.37-5.06 223.55-3.07L223.55-3.07L223.55-3.07Q217.41 1.28 209.28 1.28L209.28 1.28L209.28 1.28Q202.69 1.28 199.30-0.86L199.30-0.86L199.30-0.86Q195.90-3.01 195.90-6.27L195.90-6.27L195.90-6.27Q195.90-12.10 200.45-13.57L200.45-13.57L200.45-13.57Q201.73-14.02 203.68-14.02L203.68-14.02L203.68-14.02Q205.63-14.02 207.87-13.18L207.87-13.18L207.87-13.18Q206.85-10.56 206.85-8.19L206.85-8.19L206.85-8.19Q206.85-3.07 210.50-3.07L210.50-3.07L210.50-3.07Q212.86-3.07 214.82-4.80L214.82-4.80L214.82-4.80Q216.77-6.53 216.77-8.48L216.77-8.48L216.77-8.48Q216.77-10.43 215.52-11.84L215.52-11.84L215.52-11.84Q214.27-13.25 212.42-14.37L212.42-14.37L212.42-14.37Q210.56-15.49 208.42-16.58L208.42-16.58L208.42-16.58Q206.27-17.66 204.42-19.20L204.42-19.20L204.42-19.20Q200.06-22.72 200.06-28.35L200.06-28.35L200.06-28.35Q200.06-32 201.86-34.85L201.86-34.85L201.86-34.85Q203.65-37.70 206.53-39.62L206.53-39.62L206.53-39.62Q212.29-43.52 219.36-43.52L219.36-43.52L219.36-43.52Q226.43-43.52 229.86-41.41L229.86-41.41L229.86-41.41Q233.28-39.30 233.28-35.71L233.28-35.71L233.28-35.71Q233.28-32.58 230.85-30.59L230.85-30.59L230.85-30.59Q228.74-28.93 226.18-28.93L226.18-28.93L226.18-28.93Q223.62-28.93 221.82-29.57ZM258.50-4.80L258.50-4.80L258.50-4.80Q258.50-9.28 260.29-18.24L260.29-18.24L250.82-18.24L247.30 0L233.92 0L242.05-42.24L255.55-42.24L251.84-23.36L261.31-23.36L264.83-42.24L278.34-42.24L278.34-42.24Q277.44-37.50 276.29-32.19L276.29-32.19L274.11-21.76L274.11-21.76Q271.68-9.60 271.68-4.29L271.68-4.29L271.68-4.29Q271.68-2.11 272.38-0.90L272.38-0.90L272.38-0.90Q269.18 1.28 265.44 1.28L265.44 1.28L265.44 1.28Q261.70 1.28 260.10-0.51L260.10-0.51L260.10-0.51Q258.50-2.30 258.50-4.80ZM281.47-39.68L281.47-39.68L281.47-39.68Q282.37-41.47 284.32-42.46L284.32-42.46L284.32-42.46Q286.27-43.46 288.96-43.46L288.96-43.46L288.96-43.46Q293.18-43.46 295.71-40.42L295.71-40.42L295.71-40.42Q298.24-37.38 298.24-30.72L298.24-30.72L298.24-7.87L312.90-42.18L320.45-42.18L322.18-9.79L321.98-7.94L337.22-42.18L345.98-42.18L325.50 0L311.87 0L310.59-19.46L302.14 0L286.72 0L284.80-30.72L284.80-30.72Q284.61-34.18 283.68-36.45L283.68-36.45L283.68-36.45Q282.75-38.72 281.47-39.68ZM369.73 1.28L369.73 1.28L369.73 1.28Q361.54 1.28 360.77-10.37L360.77-10.37L349.76-10.37L349.76-10.37Q348.48-7.42 347.58-4.86L347.58-4.86L345.92 0L336.96 0L357.12-42.24L370.88-42.24L373.57-11.14L373.57-11.14Q374.21-4.42 376.77-2.43L376.77-2.43L376.77-2.43Q374.91 1.28 369.73 1.28ZM355.26-23.17L351.74-15.04L360.58-15.04L359.81-31.49L359.81-33.22L355.26-23.17ZM393.60 0L379.90 0L387.71-42.05L387.71-42.05Q394.05-42.75 403.30-42.75L403.30-42.75L403.30-42.75Q412.54-42.75 416.83-40.06L416.83-40.06L416.83-40.06Q421.12-37.38 421.12-31.97L421.12-31.97L421.12-31.97Q421.12-26.56 418.34-23.17L418.34-23.17L418.34-23.17Q415.55-19.78 410.75-18.69L410.75-18.69L410.75-18.69Q411.84-13.38 414.34-9.09L414.34-9.09L414.34-9.09Q416.64-5.06 419.33-3.78L419.33-3.78L419.33-3.78Q418.37-1.09 416.42 0.10L416.42 0.10L416.42 0.10Q414.46 1.28 411.68 1.28L411.68 1.28L411.68 1.28Q408.90 1.28 406.72-0.35L406.72-0.35L406.72-0.35Q404.54-1.98 402.82-4.99L402.82-4.99L402.82-4.99Q399.17-11.52 398.78-21.82L398.78-21.82L399.23-21.82L399.23-21.82Q403.97-21.95 406.34-24.42L406.34-24.42L406.34-24.42Q408.70-26.88 408.70-32.06L408.70-32.06L408.70-32.06Q408.70-38.53 403.26-38.78L403.26-38.78L401.86-38.78L401.86-38.78Q401.28-38.78 400.96-38.72L400.96-38.72L393.60 0ZM450.30 0L436.67 0L443.97-38.91L444.67-42.24L458.37-42.24L450.30 0ZM476.29-3.78L476.29-3.78L476.29-3.78Q474.56 1.28 467.90 1.28L467.90 1.28L467.90 1.28Q462.98 1.28 459.58-4.61L459.58-4.61L459.58-4.61Q456.13-10.50 455.49-20.10L455.49-20.10L455.49-20.10Q462.53-32.96 467.39-38.27L467.39-38.27L467.39-38.27Q472.06-43.33 476.93-43.33L476.93-43.33L476.93-43.33Q479.55-43.33 481.44-41.92L481.44-41.92L481.44-41.92Q483.33-40.51 483.78-38.27L483.78-38.27L483.78-38.27Q481.60-37.38 480.58-36.67L480.58-36.67L480.58-36.67Q478.02-34.75 474.56-30.46L474.56-30.46L468.74-23.49L468.74-23.49Q467.33-21.82 466.75-21.06L466.75-21.06L466.75-21.06Q467.71-15.68 470.59-10.37L470.59-10.37L470.59-10.37Q473.34-5.31 476.29-3.78ZM482.94-9.47L482.94-9.47L482.94-9.47Q482.94-11.97 483.58-15.17L483.58-15.17L488.77-42.24L502.91-42.24L497.79-14.98L497.79-14.98Q497.22-11.97 497.22-9.76L497.22-9.76L497.22-9.76Q497.22-7.55 498.14-6.40L498.14-6.40L498.14-6.40Q499.07-5.25 500.80-5.25L500.80-5.25L500.80-5.25Q502.53-5.25 503.62-5.70L503.62-5.70L503.62-5.70Q504.70-6.14 505.60-7.23L505.60-7.23L505.60-7.23Q507.33-9.41 508.42-14.98L508.42-14.98L513.60-42.24L523.26-42.24L518.14-15.04L518.14-15.04Q516.35-5.95 511.42-2.30L511.42-2.30L511.42-2.30Q506.62 1.28 497.15 1.28L497.15 1.28L497.15 1.28Q490.05 1.28 486.27-1.79L486.27-1.79L486.27-1.79Q482.94-4.48 482.94-9.47ZM529.98 0L522.62 0L534.21-42.24L547.58-42.24L550.53-18.11L562.43-42.24L573.63-42.24L574.78-10.62L574.78-10.62Q575.04-4.35 578.11-2.43L578.11-2.43L578.11-2.43Q577.41-1.15 575.36 0.06L575.36 0.06L575.36 0.06Q573.31 1.28 570.59 1.28L570.59 1.28L570.59 1.28Q567.87 1.28 566.27 0.51L566.27 0.51L566.27 0.51Q564.67-0.26 563.78-1.54L563.78-1.54L563.78-1.54Q562.18-3.84 562.18-8.26L562.18-8.26L562.18-28.03L549.57 0L541.63 0L537.15-28.74L529.98 0ZM608.96 1.28L608.96 1.28L608.96 1.28Q600.77 1.28 600.00-10.37L600.00-10.37L588.99-10.37L588.99-10.37Q587.71-7.42 586.82-4.86L586.82-4.86L585.15 0L576.19 0L596.35-42.24L610.11-42.24L612.80-11.14L612.80-11.14Q613.44-4.42 616.00-2.43L616.00-2.43L616.00-2.43Q614.14 1.28 608.96 1.28ZM594.50-23.17L590.98-15.04L599.81-15.04L599.04-31.49L599.04-33.22L594.50-23.17ZM632.83 0L619.14 0L626.94-42.05L626.94-42.05Q633.28-42.75 642.53-42.75L642.53-42.75L642.53-42.75Q651.78-42.75 656.06-40.06L656.06-40.06L656.06-40.06Q660.35-37.38 660.35-31.97L660.35-31.97L660.35-31.97Q660.35-26.56 657.57-23.17L657.57-23.17L657.57-23.17Q654.78-19.78 649.98-18.69L649.98-18.69L649.98-18.69Q651.07-13.38 653.57-9.09L653.57-9.09L653.57-9.09Q655.87-5.06 658.56-3.78L658.56-3.78L658.56-3.78Q657.60-1.09 655.65 0.10L655.65 0.10L655.65 0.10Q653.70 1.28 650.91 1.28L650.91 1.28L650.91 1.28Q648.13 1.28 645.95-0.35L645.95-0.35L645.95-0.35Q643.78-1.98 642.05-4.99L642.05-4.99L642.05-4.99Q638.40-11.52 638.02-21.82L638.02-21.82L638.46-21.82L638.46-21.82Q643.20-21.95 645.57-24.42L645.57-24.42L645.57-24.42Q647.94-26.88 647.94-32.06L647.94-32.06L647.94-32.06Q647.94-38.53 642.50-38.78L642.50-38.78L641.09-38.78L641.09-38.78Q640.51-38.78 640.19-38.72L640.19-38.72L632.83 0Z" fill="url(#editing-gradient-gradient)"></path></g></g><style>text {
  font-size: 64px;
  font-family: Arial Black;
  dominant-baseline: central;
  text-anchor: middle;
}</style></svg>